<svg xmlns="http://www.w3.org/2000/svg" width="32" height="32" fill="none">
  <path fill="#7EB101" d="M15.5 1.33c2.02 0 3.75.7 5.18 2.12a6.96 6.96 0 0 1 2.15 5.15 7.34 7.34 0 0 1-2.86 5.87h-1.14V12.8a5.42 5.42 0 0 0 2-4.2c0-1.47-.52-2.71-1.56-3.73a5.2 5.2 0 0 0-3.77-1.54 5.2 5.2 0 0 0-3.77 1.54 5.03 5.03 0 0 0-1.56 3.73 5.42 5.42 0 0 0 2 4.2v2.4a7.34 7.34 0 0 1-4-6.6c0-2.02.71-3.74 2.15-5.15a7.12 7.12 0 0 1 5.18-2.12Zm-1.27 28a2.65 2.65 0 0 1-1.93-.8l-6.87-6.86 1.87-1.94c.31-.3.66-.55 1.05-.71.39-.17.8-.2 1.22-.09l2.6.6V8.67c0-.94.32-1.73.96-2.37a3.22 3.22 0 0 1 2.37-.97c.93 0 1.72.33 2.37.97.64.64.96 1.43.96 2.37v5.73h.87c.11 0 .21.02.3.07l.3.13 4.93 2.4c.54.24.93.64 1.19 1.18.25.55.32 1.1.21 1.69l-1.2 7.26a2.7 2.7 0 0 1-2.67 2.2h-8.53Zm-.26-2h9.36l1.44-8.3-6.1-3.03h-1.84V8.67c0-.4-.12-.73-.36-.97a1.3 1.3 0 0 0-.97-.37c-.4 0-.72.13-.97.37a1.3 1.3 0 0 0-.36.97v13.3l-5.14-1.1-.76.76 5.7 5.7Zm9.36 0h-9.36 9.36Z"/>
</svg>
