<?xml version="1.0" standalone="no"?>
<!DOCTYPE svg PUBLIC "-//W3C//DTD SVG 20010904//EN"
 "http://www.w3.org/TR/2001/REC-SVG-20010904/DTD/svg10.dtd">
<svg version="1.0" xmlns="http://www.w3.org/2000/svg"
 width="512.000000pt" height="512.000000pt" viewBox="0 0 512.000000 512.000000"
 preserveAspectRatio="xMidYMid meet">
<metadata>
Created by potrace 1.14, written by Peter Selinger 2001-2017
</metadata>
<g transform="translate(0.000000,512.000000) scale(0.100000,-0.100000)"
fill="#000000" stroke="none">
<path d="M2369 5116 c-2 -2 -36 -6 -74 -10 -39 -4 -81 -8 -95 -11 -31 -5 -135
-23 -174 -31 -58 -10 -243 -63 -331 -94 -695 -246 -1270 -812 -1531 -1507 -35
-94 -97 -302 -108 -360 -2 -15 -9 -53 -15 -83 -29 -159 -36 -244 -35 -470 0
-113 4 -234 8 -270 5 -36 10 -72 11 -80 24 -193 108 -485 196 -680 175 -389
434 -719 770 -982 333 -259 758 -445 1154 -504 22 -3 51 -8 65 -10 119 -20
470 -26 605 -11 126 14 139 16 245 36 537 105 1051 400 1415 813 131 148 254
323 329 468 22 41 47 89 56 105 94 172 207 539 236 770 3 28 8 61 10 75 9 50
12 457 4 525 -18 145 -22 171 -40 261 -137 666 -514 1230 -1082 1618 -53 36
-100 66 -104 66 -4 0 -15 6 -23 14 -20 18 -257 137 -331 166 -142 57 -380 128
-490 146 -14 2 -38 6 -55 9 -16 3 -50 8 -75 11 -25 3 -56 8 -70 11 -28 5 -466
14 -471 9z m433 -280 c130 -17 167 -23 288 -52 543 -128 1027 -459 1352 -924
148 -212 270 -480 334 -730 18 -73 20 -84 39 -180 19 -103 29 -235 29 -390 0
-209 -10 -296 -60 -536 -40 -196 -169 -498 -296 -695 -111 -172 -298 -386
-448 -514 -158 -135 -367 -264 -580 -359 -63 -28 -278 -101 -321 -110 -13 -2
-53 -11 -89 -20 -158 -36 -295 -50 -490 -50 -132 0 -274 9 -325 19 -11 3 -38
7 -60 10 -22 3 -78 15 -125 26 -348 82 -642 224 -925 448 -78 61 -271 252
-325 320 -19 24 -47 58 -61 75 -100 121 -253 398 -322 586 -67 180 -118 401
-134 575 -13 152 -6 465 13 557 2 13 7 41 10 63 10 71 74 305 110 404 89 237
209 443 399 681 43 53 234 239 305 297 137 110 304 216 445 282 28 13 61 29
75 36 124 63 449 154 612 171 29 3 80 9 113 13 62 7 371 5 437 -3z"/>
<path d="M2485 4319 c-122 -23 -227 -91 -290 -189 -12 -19 -73 -134 -134 -255
-127 -247 -153 -287 -228 -341 -69 -50 -125 -71 -236 -89 -51 -7 -108 -16
-127 -19 -19 -3 -46 -8 -60 -10 -34 -6 -97 -16 -140 -22 -186 -25 -298 -91
-377 -223 -77 -128 -77 -311 0 -441 11 -19 111 -127 222 -240 130 -132 213
-225 233 -260 50 -91 67 -194 48 -310 -4 -25 -9 -56 -11 -70 -9 -54 -25 -156
-29 -175 -11 -55 -28 -185 -30 -226 -8 -169 92 -331 252 -407 64 -30 85 -35
162 -38 83 -3 118 2 180 28 31 13 13 4 267 132 116 58 232 113 256 120 55 16
187 14 242 -4 22 -7 144 -66 270 -130 127 -65 253 -124 280 -132 149 -43 312
-2 420 106 130 130 156 250 110 506 -8 47 -18 105 -21 130 -3 25 -12 79 -19
120 -26 153 -12 261 49 364 13 23 112 129 219 237 107 107 207 215 223 240 96
152 83 353 -33 507 -57 76 -181 144 -285 157 -24 3 -54 7 -68 10 -14 3 -54 10
-90 15 -340 54 -362 60 -442 111 -80 52 -118 106 -242 350 -65 129 -134 255
-153 281 -92 127 -263 195 -418 167z"/>
</g>
</svg>
